<svg width="458" height="352" viewBox="0 0 458 352" fill="none" xmlns="http://www.w3.org/2000/svg">
<path d="M152.3 56.1L149.5 61H146.8L145.9 62.4H148.7L142.6 72.8C141.3 75 142.2 77 144.7 77C146.5 77 148.4 75.7 150.3 73.9C150.3 77.7 155.6 78.4 158.9 74.4H159.6C161.4 74.4 164.2 73.3 165.8 71.5C165.6 71.1 165.1 70.6 164.7 70.5L164.5 70.7C163.1 72.2 161.5 72.9 159.9 72.9L162.7 68.1C164.5 65 162.8 62 160 62C157.7 62 155.9 62.9 154.1 65.9L152.6 68.5L151.4 70.6L151.2 70.8C149 73.3 146.9 75.3 145.6 75.3C144.9 75.3 144.6 74.8 145.3 73.7L151.8 62.5H154.3L155 61H152.5L155.3 56.1H152.3ZM159.8 63.9C160.8 64 161.2 65.2 160.2 66.9L158 70.6H157.9C156.9 70.6 156.1 71.4 156.1 72.4C156.1 72.8 156.2 73.1 156.4 73.4V73.5C155 75.9 151.5 75.5 153.3 72.4L155.6 68.5L157.1 66.1C158 64.5 159.1 63.9 159.8 63.9ZM181.8 56.1L179 61H176.3L175.4 62.4H178.2L172 72.8C170.7 75 171.6 77 174.1 77C175.3 77 176.6 76.4 178 75.4L177.2 76.7H180.2L184.8 68.8C189.4 63 191.5 63.8 190.2 66L186.3 72.7C185 74.9 185.9 76.9 188.4 76.9C190.2 76.9 192.2 75.5 194.1 73.7C194.2 75.6 195.8 76.9 198.2 76.9C201.6 76.9 205 74.3 207.5 71.4C207.3 71 206.8 70.5 206.4 70.4L206.2 70.6C204 73.1 201.2 75.1 199.1 75.1C197.2 75.1 196.1 74 197.5 71.5L197.8 71C199.7 71.8 203.4 71.4 205.7 67.6L206.1 66.9C207.7 64.1 206.2 62.1 203.7 62.1C201.3 62.1 199.3 63.4 198 65.5L195.1 70.5L194.9 70.7C192.7 73.2 190.6 75.2 189.3 75.2C188.6 75.2 188.3 74.7 188.9 73.6L193.3 66.1C194.6 63.8 193.4 62.2 191.7 62.2C190.4 62.2 189 62.9 187.5 64.5L192.3 56.2H189.3L180.9 70.6L180.7 70.8C178.5 73.3 176.4 75.3 175.1 75.3C174.4 75.3 174.1 74.8 174.8 73.7L181.3 62.5H183.8L184.7 61.1H182.2L185 56.2L181.8 56.1ZM203.1 64.3C204.1 64.2 204.6 65.2 203.6 66.9L203.2 67.6C201.8 70 199.8 70 198.7 69.6L200.6 66.2C201.3 65 202.3 64.4 203.1 64.3ZM247.4 58.9C245.7 60.4 245.5 62.1 246.6 63.5L246.9 63.8C245.6 65.7 243.8 68.2 241.8 70.5L241.6 70.7C240.2 72.2 238.6 72.9 237 72.9L239.8 68.1C241.6 65 239.9 62 237.1 62C234.8 62 233 62.9 231.2 65.9L229.7 68.5L228.5 70.6L228.3 70.8C225.8 73.6 223.7 75.5 221.3 76.5L228.1 65.1H226.3C226.3 63.9 225 62.2 223.1 62.2C221.5 62.2 219.2 63.5 217.9 65.6L213.7 72.8C212.4 75 213.3 77 215.8 77C216.6 77 217.7 76.6 218.7 76L217.9 77.4C213.8 78.6 211.3 80.3 211.3 82.5C211.3 85.4 215.7 86 217.9 82.3L220.2 78.4C222.6 77.7 225 76.3 227.4 73.9C227.4 77.7 232.7 78.5 236 74.4H236.7C238.5 74.4 241.3 73.3 242.9 71.5C244.3 69.8 245.5 68.3 247.9 65.1L248.3 65.6C248.7 66.1 248.8 66.7 248.5 67.3L245.3 72.8C244 75 244.9 77 247.4 77C248.9 77 250.6 76 252.2 74.6C252.1 76 253.1 77 254.8 77C255.6 77 256.7 76.6 257.7 76L256.9 77.4C252.8 78.6 250.3 80.3 250.3 82.5C250.3 85.4 254.7 86 256.9 82.3L259.2 78.4C261.7 77.6 264.1 76.2 266.6 73.8C266.7 75.7 268.3 77 270.7 77C273.2 77 275.6 75.6 277.7 73.8C277.6 77.7 283 78.5 286.3 74.4H287C287.9 74.4 289.2 74.1 290.4 73.5C289.6 75.6 290.3 77 292.1 77C293.8 77 295.6 75.5 297.1 74.1C296.8 75.7 297.8 77 299.7 77C302.2 77 305.1 74.4 307.6 71.5C309.3 69.5 310.8 67.5 311.9 66.1C310.7 69.2 311.3 74.8 308.5 74.8C307.5 74.8 307.1 73.7 307.1 73.7L305.2 74.7C305.2 74.7 305.8 77.1 308.5 77.1C308.8 77.1 309.1 77.1 309.3 77H309.4C312.5 76.6 315.5 74.2 317.8 71.6C317.6 71.1 317.1 70.7 316.7 70.6L316.5 70.8C315.4 72 314.2 73.1 312.9 74C313.9 71.2 313.7 66.8 315.5 63L313.2 61.8C312 63.5 309.2 67.4 306.5 70.5L306.3 70.7C304.1 73.2 302 75.2 300.7 75.2C300 75.2 299.7 74.7 300.4 73.6L306.8 62.4H303.8L298.4 71.7C296.1 73.8 294.3 74.9 293.8 74.7C293 74.4 293.8 73.3 294.2 72.6L300.1 62.4H297.1L292.4 70.5L292.2 70.7C290.8 72.2 289.2 72.9 287.6 72.9L290.4 68.1C292.2 65 290.5 62 287.7 62C285.4 62 283.6 62.9 281.8 65.9L280.3 68.5L279.1 70.6L278.9 70.8C276.7 73.3 273.9 75.3 271.8 75.3C269.9 75.3 268.8 74.2 270.2 71.7L270.5 71.2C272.4 72 276.1 71.6 278.4 67.8L278.8 67.1C280.4 64.3 278.9 62.3 276.4 62.3C274 62.3 272 63.6 270.7 65.7L267.8 70.7L267.6 70.9C265.1 73.7 263 75.6 260.6 76.6L267.4 65.2H265.6C265.6 64 264.3 62.3 262.4 62.3C260.8 62.3 258.5 63.6 257.2 65.7L254.3 70.6L254.1 70.8C251.9 73.3 249.8 75.3 248.5 75.3C247.8 75.3 247.5 74.8 248.2 73.7L251.2 68.5C252.2 66.7 251.8 65.6 250.8 64.5L249.1 62.5C248.7 62 248.7 61.4 249.3 60.8L247.4 58.9ZM237.1 63.9C238.1 64 238.6 65.2 237.5 66.9L235.3 70.6H235.2C234.2 70.6 233.4 71.4 233.4 72.4C233.4 72.8 233.5 73.1 233.7 73.4V73.5C232.3 75.9 228.8 75.5 230.6 72.4L232.9 68.5L234.4 66.1C235.3 64.5 236.3 63.9 237.1 63.9ZM287.3 63.9C288.3 64 288.8 65.2 287.7 66.9L285.5 70.6H285.4C284.4 70.6 283.6 71.4 283.6 72.4C283.6 72.8 283.7 73.1 283.9 73.4V73.5C282.5 75.9 279 75.5 280.8 72.4L283.1 68.5L284.6 66.1C285.4 64.5 286.5 63.9 287.3 63.9ZM275.6 64.3C276.6 64.2 277.1 65.2 276.1 66.9L275.7 67.6C274.2 70 272.3 70 271.2 69.6L273.1 66.2C273.8 65 274.8 64.4 275.6 64.3ZM223.2 64.5C224.2 64.5 224.9 65.4 224 66.9L221.7 70.9C219.9 73.8 218 75.2 216.8 75.2C216.1 75.2 215.8 74.7 216.5 73.6L220.7 66.3C221.4 65.1 222.4 64.5 223.2 64.5ZM262.1 64.5C263.1 64.5 263.8 65.4 262.9 66.9L260.6 70.9C258.8 73.8 256.9 75.2 255.7 75.2C255 75.2 254.7 74.7 255.4 73.6L259.6 66.3C260.3 65.1 261.3 64.5 262.1 64.5ZM216.8 79.4L215.4 81.8C214.8 82.9 213.7 82.7 213.7 81.9C213.7 81.2 214.5 80.3 216.8 79.4ZM255.7 79.4L254.3 81.8C253.7 82.9 252.6 82.7 252.6 81.9C252.7 81.2 253.4 80.3 255.7 79.4ZM101 67.8H129.9V69.7H101V67.8ZM328.1 67.8H357V69.7H328.1V67.8Z" fill="#766458"/>
<path d="M322.7 37.4V45.1H301.9V0.400002H322.7V8H309.5V18.8H320V26.5H309.5V37.4H322.7ZM289.9 0.400002H297.5V45.1H289.9V23.1L286.9 34.5H279.5L276.5 23.1V45.1H268.9V0.400002H276.5L283.3 22L289.9 0.400002ZM258 8H252.5V37.3H258V8ZM261 0.400002C263.5 0.400002 265.7 2.5 265.7 5.1V40.4C265.7 43 263.5 45.1 261 45.1H249.6C247 45.1 244.9 42.9 244.9 40.4V5.1C244.9 2.5 247 0.400002 249.6 0.400002H261ZM233 28.6L240.7 26.8V40.4C240.7 43 238.5 45.1 236 45.1H224.6C222 45.1 219.9 42.9 219.9 40.4V5.1C219.9 2.5 222 0.400002 224.6 0.400002H236C238.5 0.400002 240.7 2.5 240.7 5.1V14.2L233 16V8H227.5V37.3H233V28.6ZM216.2 37.4V45.1H198V0.400002H205.6V37.4H216.2ZM194.8 37.4V45.1H174V0.400002H194.8V8H181.6V18.8H192.1V26.5H181.6V37.4H194.8ZM162.6 0.400002H170.3L169 45.1H154.5L152.5 26.6L150.5 45.1H136L135 0.400002H142.6L143.2 37.4H144L148.8 0.400002H156.4L161.3 37.4H162.1L162.6 0.400002Z" fill="#81B3D3"/>
<path d="M380.817 214.7L406.178 140.7H431.339L457 214.7H436.831L433.137 201.3H404.58L400.786 214.7H380.817ZM416.462 162.6L408.974 187.1H429.043L421.554 162.6C421.155 161.4 420.756 160.2 420.356 159C420.057 157.7 419.757 156.5 419.557 155.2C419.358 154.7 419.258 154.3 419.258 153.9C419.158 153.4 419.058 153 419.058 152.6C418.958 153 418.859 153.4 418.759 153.9C418.659 154.3 418.559 154.7 418.559 155.2C418.459 155.4 418.459 155.5 418.459 155.7C418.459 155.8 418.459 155.9 418.359 156C418.16 157.1 417.86 158.3 417.561 159.4C417.061 160.4 416.762 161.5 416.462 162.6ZM298.943 214.7V140.7H318.413L346.27 178.7C346.969 179.8 347.668 181 348.267 182.2C348.966 183.4 349.665 184.6 350.264 185.8L351.662 188.8C352.161 189.8 352.56 190.8 353.06 191.7C352.96 190.9 352.86 190.1 352.76 189.3C352.66 188.5 352.56 187.7 352.56 186.9C352.361 185.3 352.261 183.7 352.261 182.1C352.161 180.4 352.161 178.8 352.161 177.1V140.8H371.531V214.8H352.161L324.104 176.6C323.305 175.7 322.606 174.6 321.907 173.3C321.208 172 320.51 170.6 319.91 169.2C319.511 168.2 319.012 167.3 318.513 166.3C318.113 165.4 317.814 164.4 317.314 163.5C317.714 165.9 318.013 168.3 318.213 170.8C318.413 173.3 318.513 175.8 318.513 178.2V214.7H298.943ZM211.078 159.8C214.672 153.2 219.564 148.2 225.955 144.7C232.345 141.2 238.935 139.5 245.824 139.5C246.723 139.5 247.721 139.5 248.62 139.6C249.618 139.7 250.617 139.8 251.515 139.8C254.411 140.2 257.207 140.9 260.002 141.9C262.898 142.9 265.594 144.2 268.09 145.8C273.582 149.4 277.875 154.1 280.87 160.1C283.866 166 285.363 172.1 285.363 178.6C285.363 179.4 285.363 180.2 285.264 181C285.264 181.8 285.164 182.5 285.064 183.3C284.864 185 284.565 186.6 284.165 188.2C283.766 189.8 283.267 191.3 282.668 192.8C279.373 200.3 274.38 206.2 267.491 210.3C260.602 214.4 253.413 216.5 245.824 216.5C245.325 216.5 244.726 216.5 244.227 216.4H242.729C240.033 216.2 237.437 215.7 234.841 215C232.245 214.3 229.749 213.3 227.452 212.1C220.962 208.7 215.87 203.9 212.176 197.6C208.481 191.3 206.584 184.7 206.584 177.9C206.584 176.9 206.584 175.9 206.684 174.9C206.784 173.9 206.884 172.8 207.183 171.8C207.583 169.8 208.082 167.7 208.781 165.8C209.18 163.6 210.079 161.7 211.078 159.8ZM263.797 186.4C263.996 185.6 264.196 184.8 264.396 184C264.595 183.1 264.795 182.3 264.895 181.4C264.995 180.9 264.995 180.3 264.995 179.8C265.095 179.3 265.095 178.8 265.095 178.3C265.095 177.8 265.095 177.4 264.995 176.9V175.5C264.595 172.2 263.597 169 261.999 165.9C260.402 162.8 258.105 160.4 255.31 158.7C254.511 158.3 253.812 158 253.013 157.7C252.214 157.4 251.515 157.1 250.717 156.9C249.918 156.7 249.219 156.6 248.42 156.6C247.621 156.4 246.922 156.4 246.124 156.4C242.23 156.4 238.535 157.6 235.24 160.1C231.945 162.6 229.549 165.9 228.251 170L228.051 170.5V171C227.852 171.7 227.652 172.5 227.452 173.2C227.253 173.9 227.153 174.6 226.953 175.4L226.753 177V179.4C226.753 179.6 226.753 179.9 226.853 180.2C227.053 184.3 228.351 188.2 230.548 191.9C232.844 195.5 236.039 197.9 240.033 199.1L241.431 199.6C241.93 199.7 242.429 199.8 242.929 199.8L244.326 200H245.724C249.818 200 253.512 198.8 256.707 196.4C260.002 193.8 262.399 190.5 263.797 186.4ZM181.822 207.8C178.228 210.3 174.234 212 170.041 212.9C165.847 213.8 161.454 214.4 157.16 214.6C155.962 214.7 154.664 214.7 153.466 214.7H129.702V140.7H154.764C155.962 140.7 157.16 140.7 158.358 140.8C162.552 141 166.646 141.6 170.64 142.5C174.733 143.4 178.527 145.2 181.922 147.6C186.216 150.6 189.61 154.6 192.007 159.6C194.403 164.6 195.801 169.7 196.1 174.9C196.2 175.4 196.2 175.8 196.2 176.3V179.2C196.001 184.7 194.703 190 192.306 195.1C189.91 200.2 186.316 204.5 181.822 207.8ZM149.472 198.1C149.672 198.1 149.971 198.1 150.171 198.2H150.97C151.269 198.2 151.569 198.2 151.769 198.3H154.864C155.762 198.2 156.561 198.1 157.26 198.1C159.257 197.9 161.254 197.6 163.151 197.1C165.048 196.6 166.845 195.7 168.343 194.7C170.839 192.9 172.637 190.5 173.835 187.5C175.033 184.4 175.732 181.2 175.732 177.9V177C175.732 176.7 175.732 176.4 175.632 176.1C175.432 173.2 174.733 170.3 173.535 167.6C172.337 164.8 170.64 162.6 168.443 161C166.845 159.7 164.948 158.8 162.951 158.3C160.954 157.8 158.958 157.6 156.961 157.5H149.472V198.1ZM69.6945 214.7V140.7H115.025V156.8H89.4642V169.8H113.427V185.6H89.4642V198.1H114.925V214.7H69.6945ZM10.3856 190.9C10.4854 191 10.4854 191.1 10.4854 191.1C10.5853 191.1 10.6851 191.1 10.6851 191.2C12.7819 193.5 15.1782 195.7 17.7743 197.7C20.3703 199.6 23.4655 200.7 26.8603 200.8C26.9602 200.8 27.06 200.8 27.06 200.9H27.3595C27.4594 200.9 27.5592 200.9 27.5592 201H28.8572C29.2566 200.9 29.5562 200.8 29.8557 200.8C31.0539 200.6 32.252 200.1 33.3503 199.4C34.5485 198.7 35.4471 197.9 36.0462 196.8L36.2459 196.3L36.4456 195.8C36.6453 195.3 36.7451 194.8 36.7451 194.3C36.845 193.8 36.845 193.4 36.845 193C36.845 190.9 35.9464 189.2 34.0493 187.8C32.3519 186.4 30.3549 185.2 28.2582 184.4C27.4594 184.1 26.6606 183.9 25.8618 183.7C25.1629 183.5 24.3641 183.3 23.6652 183.1H23.4655C23.3657 183 23.2658 183 23.2658 183C19.4716 182.1 15.8772 180.6 12.5822 178.6C9.28728 176.5 6.9908 173.5 5.6928 169.7C5.4931 168.9 5.19356 168.1 4.99387 167.3C4.79418 166.4 4.69433 165.5 4.69433 164.6C4.69433 164.5 4.69433 164.2 4.69433 164V161.2C4.79418 160.6 4.89402 160 4.99387 159.3C5.19356 157.7 5.59295 156.2 6.19203 154.7C6.69126 153.2 7.39019 151.8 8.28881 150.5C10.785 146.4 13.9801 143.5 17.7743 141.7C21.6683 139.9 25.8618 139 30.0554 139C31.0539 139 32.0523 139.1 33.0508 139.2C34.1491 139.3 35.2474 139.4 36.3457 139.5C39.1415 140 41.9372 140.8 44.5332 141.8C47.3289 142.9 49.825 144.2 52.2214 145.6L45.8312 159.9C43.7344 158.4 41.5378 157 39.2413 155.8C36.9448 154.6 34.4487 154.1 31.7528 154.1H30.8542C29.0569 154.3 27.4594 155.1 25.8618 156.5C24.3641 157.8 23.5654 159.2 23.5654 160.8V161.5C23.6652 161.7 23.7651 162 23.8649 162.2C24.0646 162.7 24.2643 163.2 24.6637 163.7C25.0631 164.2 25.4624 164.6 25.9617 165C26.8603 165.7 28.0585 166.4 29.656 167C31.2536 167.5 32.951 168.1 34.7482 168.6C36.2459 169 37.6438 169.4 39.0416 169.8C40.4395 170.1 41.6376 170.4 42.5362 170.7C46.8297 172.2 50.1246 174.8 52.3212 178.5C54.5178 182.1 55.6162 185.9 55.716 189.9V190.5C55.716 191 55.716 191.4 55.6162 191.9V193.2C55.1169 197.2 53.8189 201.1 51.7221 204.7C49.6254 208.3 46.8296 211.1 43.2352 213.1C41.9372 213.7 40.5393 214.3 39.1415 214.7C37.7436 215.1 36.3457 215.4 34.9479 215.7C33.8496 215.9 32.6514 216.1 31.4533 216.2C30.3549 216.4 29.2566 216.4 28.0585 216.4H26.6606C22.0677 216.2 17.4747 215.2 12.9816 213.4C8.4885 211.5 4.49464 208.9 1 205.7L10.3856 190.9ZM351.462 338C351.462 337.7 351.562 337.4 351.662 337.1C351.762 336.8 351.961 336.5 352.161 336.3C352.361 336.1 352.66 335.9 352.96 335.7C353.259 335.6 353.659 335.5 354.058 335.5C354.557 335.5 354.957 335.6 355.356 335.8C355.755 336 356.155 336.2 356.454 336.5C356.654 336.8 356.854 337.1 357.053 337.5C357.153 337.9 357.253 338.3 357.253 338.8C357.253 339.7 357.053 340.4 356.754 341.2C356.454 341.9 356.055 342.6 355.456 343.1C355.156 343.4 354.957 343.6 354.657 343.8C354.358 344 354.058 344.2 353.759 344.3C353.459 344.4 353.259 344.6 353.06 344.7C352.96 344.8 352.86 344.8 352.66 344.9L351.262 342.9C351.462 342.8 351.762 342.7 352.061 342.5C352.361 342.4 352.66 342.2 352.96 342C353.259 341.8 353.459 341.5 353.659 341.2C353.858 340.9 353.958 340.6 353.958 340.2C353.359 340.2 352.76 340 352.261 339.6C351.662 339.3 351.462 338.8 351.462 338ZM359.25 338C359.25 337.7 359.35 337.4 359.45 337.1C359.55 336.8 359.749 336.5 359.949 336.3C360.149 336.1 360.448 335.9 360.748 335.7C361.047 335.6 361.447 335.5 361.846 335.5C362.345 335.5 362.745 335.6 363.144 335.8C363.543 336 363.943 336.2 364.242 336.5C364.442 336.8 364.642 337.1 364.841 337.5C364.941 337.9 365.041 338.3 365.041 338.8C365.041 339.6 364.941 340.4 364.542 341.2C364.242 341.9 363.843 342.6 363.244 343.1C362.944 343.4 362.745 343.6 362.445 343.8C362.146 344 361.846 344.2 361.547 344.3C361.247 344.4 361.047 344.6 360.848 344.7C360.748 344.8 360.648 344.8 360.448 344.9L359.15 342.9C359.35 342.8 359.649 342.7 359.949 342.5C360.249 342.4 360.548 342.2 360.848 342C361.147 341.8 361.347 341.5 361.547 341.2C361.746 340.9 361.846 340.6 361.846 340.2C361.247 340.2 360.648 340 360.149 339.6C359.45 339.3 359.25 338.8 359.25 338ZM95.0556 279.3C95.0556 279.6 94.9558 279.9 94.8559 280.2C94.7561 280.5 94.5564 280.8 94.3567 281C93.8575 281.5 93.1585 281.8 92.4596 281.8C92.0602 281.8 91.561 281.7 91.1616 281.5C90.7622 281.3 90.3628 281.1 90.0633 280.8C89.7637 280.5 89.564 280.1 89.4642 279.8C89.3644 279.4 89.2645 279 89.2645 278.5C89.2645 277.6 89.4642 276.9 89.7637 276.1C90.0633 275.4 90.4627 274.7 91.0617 274.2C91.3613 273.9 91.561 273.7 91.8605 273.5C92.1601 273.3 92.4596 273.1 92.7591 273C93.0587 272.9 93.2584 272.7 93.4581 272.6C93.6578 272.5 93.7576 272.5 93.8575 272.4L95.1555 274.4C94.8559 274.5 94.5564 274.6 94.3567 274.8C94.0571 274.9 93.7576 275.1 93.4581 275.3C93.1585 275.5 92.9588 275.8 92.7591 276.1C92.5594 276.4 92.4596 276.7 92.4596 277.1C93.1585 277.1 93.6578 277.3 94.157 277.7C94.8559 278.1 95.0556 278.6 95.0556 279.3ZM87.2676 279.3C87.2676 279.9 87.0679 280.5 86.5686 281C86.3689 281.2 86.0694 281.4 85.7699 281.6C85.4703 281.7 85.0709 281.8 84.6716 281.8C84.2722 281.8 83.7729 281.7 83.3735 281.5C82.9742 281.3 82.5748 281.1 82.2752 280.8C81.9757 280.5 81.776 280.1 81.6762 279.8C81.5763 279.4 81.4765 279 81.4765 278.5C81.4765 277.6 81.6762 276.9 81.9757 276.1C82.2752 275.4 82.6746 274.7 83.2737 274.2C83.4734 274 83.7729 273.7 84.0725 273.5C84.372 273.3 84.6716 273.1 84.9711 273C85.2706 272.9 85.4703 272.7 85.67 272.6C85.8697 272.5 85.9696 272.5 86.0694 272.4L87.3674 274.4C87.1677 274.5 86.8682 274.6 86.5686 274.8C86.2691 274.9 85.9696 275.1 85.67 275.3C85.3705 275.5 85.1708 275.8 84.9711 276.1C84.7714 276.4 84.6716 276.7 84.6716 277.1C85.3705 277.1 85.8697 277.3 86.369 277.7C86.968 278.1 87.2676 278.6 87.2676 279.3ZM332.192 336.2H335.986L347.768 315.6H343.974L332.192 336.2ZM332.092 337.7C330.894 337.7 329.895 338.7 329.895 339.9C329.895 341.1 330.794 342.1 332.092 342.1C333.29 342.1 334.288 341.2 334.288 339.9C334.288 338.6 333.29 337.7 332.092 337.7ZM305.732 332.2L306.831 330.3C311.224 324.2 314.119 325.9 312.821 328.2L311.024 331.3C309.926 333.2 306.531 334.6 305.732 332.2ZM330.794 335.1C330.594 334.5 329.895 333.9 329.396 333.8L329.096 334.1C327.798 335.7 326.201 337 324.603 338.2C325.801 334.6 325.502 329.1 327.898 324.2L325.102 322.7C323.505 324.8 320.11 329.8 316.715 333.8L316.416 334.1C313.72 337.3 311.024 339.8 309.427 339.8C308.628 339.8 307.829 339 307.829 337.3V335.7C310.525 336 313.321 334.3 315.018 331.2L316.016 329.5C319.511 323.5 313.82 321.5 309.926 325L315.318 315.7H311.523L300.74 334.4C300.54 334.2 300.34 334.1 300.041 333.9L299.741 334.2C297.046 337.4 293.551 339.9 290.855 339.9C288.559 339.9 287.161 338.4 288.858 335.4L292.752 328.6C294.949 324.9 298.743 325.5 296.546 329.4L296.047 330.3H299.142L299.642 329.4C301.639 325.9 299.741 323.3 296.646 323.3C293.551 323.3 291.155 324.9 289.557 327.7L285.863 334.1C285.763 334.1 285.663 334 285.663 334L285.363 334.3C282.668 337.5 279.972 340 278.374 340C277.575 340 277.076 339.4 277.975 337.9L286.062 323.8H282.268L275.578 335.5C272.683 338.1 270.486 339.6 269.787 339.2C268.889 338.8 269.787 337.4 270.287 336.6L277.675 323.7H273.881L266.592 336.4C265.794 337.1 264.196 337.8 263.397 338.3C264.595 334.7 264.296 329.2 266.692 324.3L263.896 322.8C262.299 324.9 253.612 336.5 250.217 340.5C250.517 341 251.116 341.4 251.615 341.8C253.712 339.3 260.901 330.1 262.299 328.3C260.801 332.2 261.6 339.3 258.005 339.3C256.707 339.3 256.208 337.9 256.208 337.9L253.812 339.1C253.812 339.1 254.511 342.1 257.906 342.1C258.305 342.1 258.605 342.1 259.004 342H259.104C261.001 341.7 263.697 340.9 265.494 339.6C265.494 341.1 266.393 342.1 267.99 342.1C270.087 342.1 272.383 340.2 274.181 338.5C273.781 340.5 274.979 342.1 277.376 342.1C279.672 342.1 282.368 340.2 284.764 337.7C284.764 340.2 286.761 342.1 289.857 342.1C292.952 342.1 295.947 340.4 298.543 338.1L296.446 341.8H300.241L304.534 334.3V337.3C304.534 340.5 305.133 342.2 308.228 342.2C311.324 342.2 314.918 338.9 318.013 335.2C320.11 332.7 322.007 330.1 323.405 328.3C321.907 332.2 322.706 339.3 319.112 339.3C317.814 339.3 317.314 337.9 317.314 337.9L314.918 339.1C314.918 339.1 315.617 342.1 319.012 342.1C319.411 342.1 319.711 342.1 320.11 342H320.21C324.204 341.5 327.998 338.4 330.794 335.1ZM216.369 334H216.17C214.972 334 213.973 335 213.973 336.3C213.973 336.8 214.073 337.2 214.372 337.6V337.7C212.575 340.7 208.282 340.2 210.478 336.2L213.374 331.2L215.171 328.1C217.867 323.6 221.462 325.4 219.165 329.3L216.369 334ZM191.008 348.2C190.21 349.6 188.912 349.4 188.912 348.4C188.912 347.4 189.81 346.3 192.706 345.2L191.008 348.2ZM162.252 334.4C159.956 338 157.759 339.7 156.162 339.7C155.363 339.7 154.864 339.1 155.762 337.6L161.054 328.4C163.051 324.9 167.145 325.8 165.248 329.2L162.252 334.4ZM150.271 319.7C151.369 317.8 152.667 316.9 153.666 316.9C155.063 316.9 155.762 317.8 155.762 319.2C155.762 322.7 151.369 330 145.578 329.1H144.779L150.271 319.7ZM242.929 333.8L242.629 334.1C239.933 337.3 237.237 339.8 235.64 339.8C234.841 339.8 234.342 339.2 235.24 337.7L240.632 328.1C242.23 325.2 240.732 323.2 238.635 323.2C237.038 323.2 235.34 324.1 233.443 326L234.841 323.5H231.047L224.956 334C224.757 333.9 224.657 333.8 224.457 333.7L224.157 334C222.46 335.9 220.363 336.8 218.466 336.8L222.061 330.7C224.357 326.7 222.26 323 218.666 323C215.77 323 213.474 324.2 211.377 327.9L209.48 331.1L207.882 333.9C207.783 333.8 207.683 333.8 207.583 333.7L207.283 334C204.188 337.6 201.492 339.9 198.497 341.2L208.881 323.5H205.087L198.397 335.1C195.501 337.8 193.205 339.3 192.506 339C191.607 338.6 192.506 337.2 193.005 336.4L200.394 323.5H196.6L190.609 333.9C190.509 333.8 190.409 333.8 190.309 333.7L190.01 334C187.314 337.2 184.618 339.7 183.021 339.7C182.222 339.7 181.723 339.1 182.621 337.6L188.013 328C189.61 325.1 188.113 323.1 186.016 323.1C184.418 323.1 182.721 324 180.824 325.9L182.222 323.4H178.428L172.437 333.8C172.337 333.7 172.237 333.7 172.037 333.6L171.738 333.9C169.042 337.1 166.346 339.6 164.749 339.6C163.95 339.6 163.451 339 164.349 337.5L170.44 326.8H168.343C168.443 325.2 166.845 323 164.349 323C162.352 323 159.457 324.6 157.859 327.4L153.965 334.1C153.666 333.9 153.366 333.7 153.166 333.6L152.867 333.9C150.171 337.1 148.074 339.6 144.28 339.6C141.684 339.6 140.186 337 142.383 333.2L143.481 331.3C144.18 331.4 144.879 331.5 145.578 331.5C149.572 331.5 154.165 329.4 157.16 324.2C158.259 322.3 158.658 320.6 158.658 319.1C158.658 315.7 156.461 313.5 153.666 313.5C151.569 313.5 149.173 315 147.475 317.9L141.584 328C139.388 326.8 138.189 324.7 138.189 322.6C138.189 320.9 138.988 319.1 140.586 317.8L139.388 315.6C136.692 317.5 135.494 320.1 135.494 322.6C135.494 325.6 137.191 328.5 140.286 330.1L139.188 332.1C136.492 336.7 138.09 341.8 143.381 341.8C147.575 341.8 149.472 339.9 152.068 337.4C151.269 339.8 152.467 341.8 155.064 341.8C156.561 341.8 158.458 340.8 160.256 339.3C160.455 340.8 161.554 341.8 163.55 341.8C165.348 341.8 167.345 340.7 169.242 339L167.844 341.4H171.638L177.429 331.3C183.22 324.1 185.816 325 184.119 327.8L179.226 336.3C177.629 339.1 178.727 341.7 181.822 341.7C183.819 341.7 186.116 340.3 188.213 338.3C187.713 340.4 188.712 341.7 190.609 341.7C192.406 341.7 194.503 340.2 196.2 338.7L194.104 342.3C189.011 343.8 185.816 345.9 185.816 348.8C185.816 352.4 191.408 353.2 194.104 348.5L196.999 343.5C200.194 342.5 203.289 340.5 206.485 337.3C205.985 342.6 212.975 343.8 217.168 338.4H217.967C219.365 338.4 221.162 337.9 222.859 336.9L220.363 341.3H224.157L229.949 331.2C235.74 324 238.336 324.9 236.638 327.7L231.746 336.2C230.148 339 231.247 341.6 234.342 341.6C237.437 341.6 241.032 338.3 244.127 334.6C244.027 334.6 243.428 334 242.929 333.8ZM361.347 298.2C359.05 301.9 356.754 303.7 355.156 303.7C354.358 303.7 353.858 303.1 354.757 301.6L360.049 292.4C362.046 288.9 366.139 289.8 364.242 293.2L361.347 298.2ZM325.202 298.4C322.906 302 320.709 303.7 319.112 303.7C318.313 303.7 317.814 303.1 318.712 301.6L324.004 292.4C326.001 288.9 330.095 289.8 328.198 293.2L325.202 298.4ZM285.363 312.2C284.565 313.6 283.267 313.4 283.267 312.4C283.267 311.4 284.165 310.3 287.061 309.2L285.363 312.2ZM293.351 283.7C294.45 281.8 295.748 280.9 296.746 280.9C302.737 280.9 298.244 295.3 288.658 293.1H287.86L293.351 283.7ZM370.932 297.8L370.633 298.1C367.937 301.3 365.241 303.8 363.643 303.8C362.845 303.8 362.345 303.2 363.244 301.7L376.024 279.6H372.23L366.639 289.2C365.94 288.1 364.742 287.2 363.144 287.2C361.147 287.2 358.252 288.8 356.654 291.6L352.96 298C352.86 298 352.76 297.9 352.76 297.9L352.46 298.2C349.765 301.4 347.468 303.9 345.771 303.9C344.972 303.9 344.473 303.3 345.371 301.8L350.863 292.2C352.461 289.3 350.963 287.3 348.866 287.3C347.268 287.3 345.571 288.2 343.674 290.1L345.072 287.6H341.278L335.287 298C335.187 297.9 335.087 297.9 334.887 297.8L334.588 298.1C331.892 301.3 329.196 303.8 327.599 303.8C326.8 303.8 326.301 303.2 327.199 301.7L333.29 291H331.193C331.293 289.4 329.695 287.2 327.199 287.2C325.202 287.2 322.307 288.8 320.709 291.6L317.015 297.9L316.815 298.1C314.119 301.3 311.024 303.8 309.427 303.8C308.628 303.8 308.129 303.2 309.027 301.7L312.821 295.1C314.119 292.8 313.52 291.5 312.322 290L310.225 287.5C309.726 286.8 309.726 286 310.425 285.3L308.428 283.2C306.331 285.1 306.132 287.3 307.43 289L307.729 289.4C306.032 291.8 303.835 295 301.339 297.9C301.439 298 301.539 298.1 301.639 298.2C298.543 301.8 295.847 304.1 292.952 305.4L297.744 297.2H293.95L293.551 297.9C291.554 301.4 289.258 303.9 286.362 303.9C283.766 303.9 283.367 301.3 285.563 297.5L286.661 295.6C287.36 295.7 288.059 295.8 288.758 295.8C302.138 295.8 308.628 277.8 296.846 277.8C294.749 277.8 292.353 279.3 290.655 282.2L284.764 292.3C282.568 291.1 281.37 289 281.37 286.9C281.37 285.2 282.168 283.4 283.766 282.1L282.568 279.9C279.872 281.8 278.674 284.4 278.674 286.9C278.674 289.9 280.371 292.8 283.466 294.4L282.368 296.4C279.672 301 280.171 306.1 285.563 306.1C287.161 306.1 288.459 305.6 289.657 304.9L288.658 306.6C283.566 308.2 280.371 310.2 280.371 313.1C280.371 316.7 285.963 317.5 288.658 312.8L291.554 307.8C295.448 306.6 299.342 303.9 303.436 299.1C303.336 299 303.336 298.9 303.236 298.7C304.933 296.7 306.331 294.8 309.227 291L309.726 291.6C310.225 292.2 310.425 293 309.926 293.7L305.932 300.6C304.334 303.4 305.433 306 308.528 306C310.425 306 312.821 304.8 314.918 303C314.918 304.7 316.016 306 318.213 306C319.711 306 321.608 305 323.405 303.5C323.605 305 324.703 306 326.7 306C328.497 306 330.494 304.9 332.391 303.2L330.993 305.6H334.788L340.579 295.5C346.37 288.3 348.966 289.2 347.268 292L342.376 300.5C340.778 303.3 341.877 305.9 344.972 305.9C346.969 305.9 348.766 304.5 350.963 302.6C350.763 304.5 351.961 305.9 354.258 305.9C355.755 305.9 357.653 304.9 359.45 303.4C359.649 304.9 360.748 305.9 362.745 305.9C365.84 305.9 369.434 302.6 372.53 298.9C372.03 298.6 371.431 298 370.932 297.8ZM258.804 292.5C261.001 288.8 264.795 289.4 262.598 293.3L262.099 294.2C260.302 297.3 257.806 297.2 256.408 296.7L258.804 292.5ZM255.809 306.1C260.102 306.1 264.296 302.8 267.491 299.1C267.191 298.6 266.592 298 266.093 297.8L265.794 298.1C263.098 301.3 259.603 303.8 256.907 303.8C254.611 303.8 253.213 302.3 254.91 299.3L255.31 298.6C257.706 299.6 262.299 299.1 265.095 294.2L265.594 293.3C267.591 289.8 265.694 287.2 262.598 287.2C259.603 287.2 257.107 288.8 255.509 291.6L251.815 297.9C251.815 297.9 251.715 297.9 251.715 297.8L251.416 298.1C248.72 301.3 246.024 303.8 244.426 303.8C243.628 303.8 243.128 303.2 244.027 301.7L249.419 292.1C251.016 289.2 249.519 287.2 247.422 287.2C245.824 287.2 244.027 288.1 242.13 290.1L248.121 279.6H244.326L233.643 298.1C233.543 298 233.343 297.9 233.243 297.8L232.944 298.1C230.248 301.3 227.552 303.8 225.955 303.8C225.156 303.8 224.657 303.2 225.555 301.7L233.643 287.6H236.738L237.836 285.8H234.741L238.336 279.6H234.541L230.947 285.8H227.552L226.454 287.6H229.849L222.26 300.8C220.663 303.6 221.761 306.2 224.856 306.2C226.753 306.2 228.75 305 230.747 303.2L229.25 305.8H233.044L238.735 295.8C244.526 288.5 247.122 289.4 245.525 292.2L240.632 300.7C239.035 303.5 240.133 306.1 243.228 306.1C245.525 306.1 248.021 304.3 250.517 301.9C250.717 304.3 252.714 306.1 255.809 306.1ZM128.504 292.5C130.701 288.8 134.495 289.4 132.298 293.3L131.799 294.2C130.002 297.3 127.506 297.2 126.108 296.7L128.504 292.5ZM151.569 301.7L156.861 292.5C158.858 289 162.951 289.9 161.054 293.3L158.159 298.5C155.862 302.1 153.666 303.8 152.068 303.8C151.169 303.7 150.67 303.2 151.569 301.7ZM205.486 292.5C207.683 288.8 211.477 289.4 209.28 293.3L208.781 294.2C206.984 297.3 204.587 297.2 203.09 296.7L205.486 292.5ZM147.775 302C147.176 304.2 148.374 306.1 150.87 306.1C152.368 306.1 154.265 305.1 156.062 303.6C156.262 305.1 157.36 306.1 159.357 306.1C161.354 306.1 163.55 304.7 165.747 302.8C165.348 304.8 166.246 306.1 168.143 306.1C170.24 306.1 172.537 304.2 174.334 302.5C173.935 304.5 175.133 306.1 177.529 306.1C180.624 306.1 184.219 302.8 187.314 299.1C187.314 299.1 187.214 299 187.214 298.9C189.311 296.5 191.108 293.9 192.406 292.1C190.908 296 191.707 303.1 188.113 303.1C186.815 303.1 186.316 301.7 186.316 301.7L183.919 302.9C183.919 302.9 184.618 306 188.013 306C188.412 306 188.712 306 189.111 305.9H189.211C192.007 305.5 194.703 303.8 197.099 301.7C197.199 304.2 199.096 306 202.191 306C206.485 306 210.678 302.7 213.873 299C213.574 298.5 212.975 297.9 212.475 297.7L212.176 298C209.48 301.2 205.985 303.7 203.289 303.7C200.993 303.7 199.595 302.2 201.293 299.2L201.692 298.5C204.088 299.5 208.681 299 211.477 294.1L211.976 293.2C213.973 289.7 212.076 287.1 208.981 287.1C205.885 287.1 203.489 288.7 201.892 291.5L198.197 297.8H198.097L197.798 298.1C196.5 299.7 194.902 301 193.305 302.2C194.503 298.6 194.203 293.1 196.6 288.2L193.804 286.7C192.206 288.8 188.812 293.8 185.417 297.8L185.517 297.9L185.417 298.1C182.721 301.3 180.025 303.8 178.428 303.8C177.629 303.8 177.13 303.2 178.028 301.7L186.116 287.6H182.322L175.632 299.3C172.736 301.9 170.54 303.4 169.841 303C168.942 302.6 169.841 301.2 170.34 300.4L177.729 287.5H173.935L167.944 297.9C167.844 297.8 167.744 297.8 167.644 297.7L167.345 298C164.649 301.2 161.953 303.7 160.355 303.7C159.557 303.7 159.057 303.1 159.956 301.6L166.047 290.9H163.95C164.05 289.3 162.452 287.1 159.956 287.1C157.959 287.1 155.063 288.7 153.466 291.5L149.672 298.1C149.472 298 149.272 297.8 149.073 297.7L148.773 298C146.077 301.2 142.882 303.7 140.286 303.7C137.99 303.7 136.592 302.2 138.289 299.2L142.183 292.4C144.38 288.7 148.174 289.3 145.977 293.2L145.478 294.1H148.573L149.073 293.2C151.07 289.7 149.173 287.1 146.077 287.1C142.982 287.1 140.985 288.7 139.388 291.5L135.593 297.9C135.494 297.8 135.394 297.8 135.294 297.7L134.994 298C132.298 301.2 129.103 303.7 126.407 303.7C124.111 303.7 122.713 302.2 124.411 299.2L124.81 298.5C127.206 299.5 131.799 299 134.595 294.1L135.094 293.2C137.091 289.7 135.194 287.1 132.099 287.1C129.004 287.1 126.607 288.7 125.01 291.5L121.016 298.3C118.619 302.3 120.716 306 125.109 306C128.404 306 131.1 304 133.896 301.4C133.796 304 135.793 306 138.988 306C142.383 306.1 145.079 304.3 147.775 302ZM110.931 288L114.026 282.8C116.822 278 120.317 280.8 118.42 284.4C116.922 287.1 114.825 288 110.931 288ZM106.838 305.3C104.541 305.3 102.844 304.8 101.446 304C102.145 303.2 102.744 302.3 103.343 301.3L109.733 290.3L110.732 290.4C119.518 292.2 116.023 305.3 106.838 305.3ZM116.223 289.8C123.811 287.2 124.411 277.7 116.922 277.7C114.825 277.7 112.429 279.2 110.732 282.1L100.547 299.7C100.148 300.5 99.6486 301.2 99.0495 301.8C96.4535 298.2 97.1524 292.8 100.847 290.5L99.349 288.6C91.4611 293.6 93.7576 308.2 106.937 308.2C118.22 308.2 123.412 294.6 116.223 289.8Z" fill="white"/>
</svg>
